<?xml version="1.0" encoding="UTF-8" standalone="no"?>
<!-- Created with Inkscape (http://www.inkscape.org/) -->

<svg
   xmlns:dc="http://purl.org/dc/elements/1.1/"
   xmlns:cc="http://creativecommons.org/ns#"
   xmlns:rdf="http://www.w3.org/1999/02/22-rdf-syntax-ns#"
   xmlns:svg="http://www.w3.org/2000/svg"
   xmlns="http://www.w3.org/2000/svg"
   xmlns:sodipodi="http://sodipodi.sourceforge.net/DTD/sodipodi-0.dtd"
   xmlns:inkscape="http://www.inkscape.org/namespaces/inkscape"
   width="330mm"
   height="90mm"
   viewBox="0 0 1169.2913 318.89764"
   id="svg2"
   version="1.1"
   inkscape:version="0.91 r13725"
   sodipodi:docname="readyplayerone.svg">
  <defs
     id="defs4" />
  <sodipodi:namedview
     id="base"
     pagecolor="#444444"
     bordercolor="#666666"
     borderopacity="1.0"
     inkscape:pageopacity="0"
     inkscape:pageshadow="2"
     inkscape:zoom="0.64"
     inkscape:cx="576.44866"
     inkscape:cy="153.33064"
     inkscape:document-units="mm"
     inkscape:current-layer="layer1"
     showgrid="true"
     inkscape:window-width="1364"
     inkscape:window-height="728"
     inkscape:window-x="0"
     inkscape:window-y="854"
     inkscape:window-maximized="1">
    <inkscape:grid
       type="xygrid"
       id="grid3336"
       units="mm"
       spacingx="17.716536"
       spacingy="17.716536" />
  </sodipodi:namedview>
  <metadata
     id="metadata7">
    <rdf:RDF>
      <cc:Work
         rdf:about="">
        <dc:format>image/svg+xml</dc:format>
        <dc:type
           rdf:resource="http://purl.org/dc/dcmitype/StillImage" />
        <dc:title></dc:title>
      </cc:Work>
    </rdf:RDF>
  </metadata>
  <g
     inkscape:label="Layer 1"
     inkscape:groupmode="layer"
     id="layer1"
     transform="translate(0,-733.46458)">
    <path
       style="fill:#eccf45;fill-opacity:1;fill-rule:evenodd;stroke:#000000;stroke-width:0;stroke-linecap:butt;stroke-linejoin:miter;stroke-miterlimit:4;stroke-dasharray:none;stroke-opacity:1"
       d="m 124.01562,141.73242 0,17.7168 -17.71679,0 0,17.7168 -17.716799,0 0,53.14843 17.716799,0 0,17.7168 17.71679,0 0,17.7168 70.86719,0 0,-17.7168 17.71485,0 0,-35.43359 70.86718,0 0,17.71679 17.7168,0 0,17.7168 17.7168,0 0,-17.7168 17.71484,0 0,17.7168 17.7168,0 0,-35.43359 17.7168,0 0,-17.71485 -159.44922,0 0,-17.71679 -17.71485,0 0,-35.4336 -70.86719,0 z m 17.7168,17.7168 35.4336,0 0,88.58203 -35.4336,0 0,-17.7168 -17.7168,0 0,-17.71679 0,-35.43164 17.7168,0 0,-17.7168 z"
       transform="translate(-6.1035156e-5,698.0315)"
       id="path3346"
       inkscape:connector-curvature="0" />
    <path
       style="fill:#ea941b;fill-opacity:1;fill-rule:evenodd;stroke:#000000;stroke-width:0;stroke-linecap:butt;stroke-linejoin:miter;stroke-miterlimit:4;stroke-dasharray:none;stroke-opacity:1"
       d="m 124.0157,910.62992 17.71653,0 0,17.71653 35.43308,0 0,17.71654 -35.43308,0 0,-17.71654 -17.71653,0 z"
       id="path4147"
       inkscape:connector-curvature="0" />
    <path
       style="fill:#ea941b;fill-opacity:1;fill-rule:evenodd;stroke:#000000;stroke-width:0;stroke-linecap:butt;stroke-linejoin:miter;stroke-miterlimit:4;stroke-dasharray:none;stroke-opacity:1"
       d="m 88.582622,875.19684 0,-17.71653 17.716538,0 0,-17.71654 17.71654,0 0,-17.71654 88.58268,0 0,53.14961 159.44883,0 0,17.71654 -159.44883,0 0,-17.71654 -17.71654,0 0,-35.43307 -70.86614,0 0,17.71654 -17.71654,0 0,17.71653 z"
       id="path4149"
       inkscape:connector-curvature="0" />
    <path
       inkscape:connector-curvature="0"
       style="fill:#99f381;fill-opacity:1;fill-rule:evenodd;stroke:#000000;stroke-width:0;stroke-linecap:butt;stroke-linejoin:miter;stroke-miterlimit:4;stroke-dasharray:none;stroke-opacity:1"
       d="m 478.34692,839.7639 0,17.71681 -17.71679,0 0,17.7168 -17.7168,0 0,53.14843 17.7168,0 0,17.7168 17.71679,0 0,17.71679 70.86719,0 0,-17.7168 17.71485,0 0,-35.43358 70.86718,0 0,17.71678 17.7168,0 0,17.7168 17.7168,0 0,-17.7168 17.71484,0 0,17.7168 17.7168,0 0,-35.43358 17.7168,0 0,-17.71485 -159.44922,0 0,-17.71679 -17.71485,0 0,-35.4336 -70.86719,0 z m 17.7168,17.71681 35.4336,0 0,88.58203 -35.4336,0 0,-17.7168 -17.7168,0 0,-17.71679 0,-35.43164 17.7168,0 0,-17.7168 z"
       id="path3346-9" />
    <path
       style="fill:#399e34;fill-opacity:1;fill-rule:evenodd;stroke:#000000;stroke-width:0;stroke-linecap:butt;stroke-linejoin:miter;stroke-miterlimit:4;stroke-dasharray:none;stroke-opacity:1"
       d="m 478.34706,910.62991 17.71653,0 0,17.71652 35.43308,0 0,17.71654 -35.43308,0 0,-17.71654 -17.71653,0 z"
       id="path4147-6"
       inkscape:connector-curvature="0" />
    <path
       style="fill:#399e34;fill-opacity:1;fill-rule:evenodd;stroke:#000000;stroke-width:0;stroke-linecap:butt;stroke-linejoin:miter;stroke-miterlimit:4;stroke-dasharray:none;stroke-opacity:1"
       d="m 442.91398,875.19683 0,-17.71653 17.71654,0 0,-17.71654 17.71654,0 0,-17.71655 88.58269,0 0,53.14962 159.44883,0 0,17.71653 -159.44883,0 0,-17.71653 -17.71654,0 0,-35.43307 -70.86615,0 0,17.71654 -17.71654,0 0,17.71653 z"
       id="path4149-4"
       inkscape:connector-curvature="0" />
    <path
       inkscape:connector-curvature="0"
       style="fill:#bbc5f8;fill-opacity:1;fill-rule:evenodd;stroke:#000000;stroke-width:0;stroke-linecap:butt;stroke-linejoin:miter;stroke-miterlimit:4;stroke-dasharray:none;stroke-opacity:1"
       d="m 832.67763,839.7639 0,17.71682 -17.71679,0 0,17.7168 -17.7168,0 0,53.14842 17.7168,0 0,17.71681 17.71679,0 0,17.71678 70.86719,0 0,-17.7168 17.71485,0 0,-35.43357 70.86716,0 0,17.71677 17.71677,0 0,17.7168 17.7168,0 0,-17.7168 17.7149,0 0,17.7168 17.7168,0 0,-35.43357 17.7168,0 0,-17.71485 -159.44923,0 0,-17.71679 -17.71485,0 0,-35.4336 -70.86719,0 z m 17.7168,17.71682 35.4336,0 0,88.58203 -35.4336,0 0,-17.71681 -17.7168,0 0,-17.71678 0,-35.43164 17.7168,0 0,-17.7168 z"
       id="path3346-9-7" />
    <path
       style="fill:#625fd0;fill-opacity:1;fill-rule:evenodd;stroke:#000000;stroke-width:0;stroke-linecap:butt;stroke-linejoin:miter;stroke-miterlimit:4;stroke-dasharray:none;stroke-opacity:1"
       d="m 832.67777,910.62992 17.71653,0 0,17.71651 35.43308,0 0,17.71654 -35.43308,0 0,-17.71654 -17.71653,0 z"
       id="path4147-6-3"
       inkscape:connector-curvature="0" />
    <path
       style="fill:#625fd0;fill-opacity:1;fill-rule:evenodd;stroke:#000000;stroke-width:0;stroke-linecap:butt;stroke-linejoin:miter;stroke-miterlimit:4;stroke-dasharray:none;stroke-opacity:1"
       d="m 797.24469,875.19684 0,-17.71653 17.71654,0 0,-17.71654 17.71654,0 0,-17.71656 88.58269,0 0,53.14963 159.44884,0 0,17.71652 -159.44884,0 0,-17.71652 -17.71654,0 0,-35.43307 -70.86615,0 0,17.71654 -17.71654,0 0,17.71653 z"
       id="path4149-4-0"
       inkscape:connector-curvature="0" />
  </g>
</svg>
